{
   "asset": {
      "version": "2.0",
      "generator": "babylon.js glTF exporter for   v"
   },
   "scene": 0,
   "scenes": [
      {
         "nodes": [
            0,
            1
         ],
         "extensions": {}
      }
   ],
   "nodes": [
      {
         "mesh": 0,
         "translation": [
            0,
            0,
            0
         ],
         "rotation": [
            0,
            0,
            0,
            1
         ],
         "scale": [
            0.05,
            0.05,
            0.05
         ],
         "name": "Hedra006"
      },
      {
         "translation": [
            0,
            0,
            0
         ],
         "rotation": [
            0,
            0,
            0,
            1
         ],
         "scale": [
            0.05,
            0.05,
            0.05
         ],
         "name": "Default light"
      }
   ],
   "meshes": [
      {
         "primitives": [
            {
               "attributes": {
                  "POSITION": 1,
                  "NORMAL": 2,
                  "TEXCOORD_0": 3
               },
               "indices": 0,
               "mode": 4,
               "material": 0
            }
         ],
         "name": "Hedra006"
      }
   ],
   "accessors": [
      {
         "bufferView": 0,
         "componentType": 5123,
         "count": 6876,
         "type": "SCALAR",
         "name": "accessorIndices"
      },
      {
         "bufferView": 1,
         "componentType": 5126,
         "count": 6876,
         "max": [
            24.6035,
            24.6035,
            24.6035
         ],
         "min": [
            -24.6035,
            -24.6035,
            -24.603485
         ],
         "type": "VEC3",
         "name": "accessorPositions"
      },
      {
         "bufferView": 1,
         "byteOffset": 82512,
         "componentType": 5126,
         "count": 6876,
         "type": "VEC3",
         "name": "accessorNormals"
      },
      {
         "bufferView": 2,
         "componentType": 5126,
         "count": 6876,
         "type": "VEC2",
         "name": "accessorUVs"
      },
      {
         "bufferView": 3,
         "componentType": 5126,
         "count": 61,
         "max": [
            2
         ],
         "min": [
            0
         ],
         "type": "SCALAR",
         "name": "accessorAnimationInput"
      },
      {
         "bufferView": 4,
         "componentType": 5126,
         "count": 61,
         "type": "VEC4",
         "name": "accessorAnimationRotations"
      }
   ],
   "bufferViews": [
      {
         "buffer": 0,
         "byteLength": 13752,
         "name": "bufferViewScalar"
      },
      {
         "buffer": 0,
         "byteOffset": 13752,
         "byteLength": 165024,
         "byteStride": 12,
         "name": "bufferViewFloatVec3"
      },
      {
         "buffer": 0,
         "byteOffset": 178776,
         "byteLength": 55008,
         "byteStride": 8,
         "name": "bufferViewFloatVec2"
      },
      {
         "buffer": 0,
         "byteOffset": 233784,
         "byteLength": 244,
         "name": "bufferViewAnimationFloatScalar"
      },
      {
         "buffer": 0,
         "byteOffset": 234028,
         "byteLength": 976,
         "name": "bufferViewAnimationFloatVec4"
      }
   ],
   "buffers": [
      {
         "uri": "animated.bin",
         "byteLength": 235004
      }
   ],
   "materials": [
      {
         "pbrMetallicRoughness": {
            "baseColorFactor": [
               1,
               1,
               1,
               1
            ],
            "baseColorTexture": {
               "index": 1,
               "texCoord": 0
            },
            "metallicFactor": 1,
            "roughnessFactor": 1,
            "metallicRoughnessTexture": {
               "index": 2,
               "texCoord": 0
            }
         },
         "normalTexture": {
            "index": 0,
            "texCoord": 0
         },
         "emissiveFactor": [
            0,
            0,
            0
         ],
         "alphaMode": "OPAQUE",
         "name": "Hedra_006"
      }
   ],
   "textures": [
      {
         "sampler": 0,
         "source": 0,
         "name": "animated_gltf_Normal.png"
      },
      {
         "sampler": 0,
         "source": 1,
         "name": "animated_gltf_BaseColor.png"
      },
      {
         "sampler": 0,
         "source": 2,
         "name": "animated_gltf_Roughness_Metallic.jpg"
      }
   ],
   "images": [
      {
         "uri": "animated_gltf_Normal.png"
      },
      {
         "uri": "animated_gltf_BaseColor.png"
      },
      {
         "uri": "animated_gltf_Roughness_Metallic.jpg"
      }
   ],
   "samplers": [
      {
         "magFilter": 9729,
         "minFilter": 9987,
         "wrapS": 10497,
         "wrapT": 10497
      }
   ],
   "animations": [
      {
         "channels": [
            {
               "sampler": 0,
               "target": {
                  "node": 0,
                  "path": "rotation"
               }
            }
         ],
         "samplers": [
            {
               "input": 4,
               "interpolation": "LINEAR",
               "output": 5
            }
         ],
         "name": "All Animations"
      }
   ]
}

