{
   "asset": {
      "version": "2.0",
      "generator": "babylon.js glTF exporter for   v"
   },
   "scene": 0,
   "scenes": [
      {
         "nodes": [
            0,
            1
         ],
         "extensions": {}
      }
   ],
   "nodes": [
      {
         "mesh": 0,
         "translation": [
            0,
            0,
            0
         ],
         "rotation": [
            0,
            0,
            0,
            1
         ],
         "scale": [
            0.05,
            0.05,
            0.05
         ],
         "name": "Hedra005"
      },
      {
         "translation": [
            0,
            0,
            0
         ],
         "rotation": [
            0,
            0,
            0,
            1
         ],
         "scale": [
            0.05,
            0.05,
            0.05
         ],
         "name": "Default light"
      }
   ],
   "meshes": [
      {
         "primitives": [
            {
               "attributes": {
                  "POSITION": 1,
                  "NORMAL": 2,
                  "TEXCOORD_0": 3
               },
               "indices": 0,
               "mode": 4,
               "material": 0
            }
         ],
         "name": "Hedra005"
      }
   ],
   "accessors": [
      {
         "bufferView": 0,
         "componentType": 5123,
         "count": 13716,
         "type": "SCALAR",
         "name": "accessorIndices"
      },
      {
         "bufferView": 1,
         "componentType": 5126,
         "count": 13716,
         "max": [
            24.800102,
            24.800102,
            24.80011
         ],
         "min": [
            -24.800102,
            -24.800102,
            -24.80011
         ],
         "type": "VEC3",
         "name": "accessorPositions"
      },
      {
         "bufferView": 1,
         "byteOffset": 164592,
         "componentType": 5126,
         "count": 13716,
         "type": "VEC3",
         "name": "accessorNormals"
      },
      {
         "bufferView": 2,
         "componentType": 5126,
         "count": 13716,
         "type": "VEC2",
         "name": "accessorUVs"
      }
   ],
   "bufferViews": [
      {
         "buffer": 0,
         "byteLength": 27432,
         "name": "bufferViewScalar"
      },
      {
         "buffer": 0,
         "byteOffset": 27432,
         "byteLength": 329184,
         "byteStride": 12,
         "name": "bufferViewFloatVec3"
      },
      {
         "buffer": 0,
         "byteOffset": 356616,
         "byteLength": 109728,
         "byteStride": 8,
         "name": "bufferViewFloatVec2"
      }
   ],
   "buffers": [
      {
         "uri": "static.bin",
         "byteLength": 466344
      }
   ],
   "materials": [
      {
         "pbrMetallicRoughness": {
            "baseColorFactor": [
               1,
               1,
               1,
               1
            ],
            "baseColorTexture": {
               "index": 1,
               "texCoord": 0
            },
            "metallicFactor": 1,
            "roughnessFactor": 1,
            "metallicRoughnessTexture": {
               "index": 2,
               "texCoord": 0
            }
         },
         "normalTexture": {
            "index": 0,
            "texCoord": 0
         },
         "emissiveFactor": [
            0,
            0,
            0
         ],
         "alphaMode": "OPAQUE",
         "name": "Hedra_005"
      }
   ],
   "textures": [
      {
         "sampler": 0,
         "source": 0,
         "name": "static_gltf_Normal.png"
      },
      {
         "sampler": 0,
         "source": 1,
         "name": "static_gltf_BaseColor.png"
      },
      {
         "sampler": 0,
         "source": 2,
         "name": "static_gltf_Roughness_Metallic.jpg"
      }
   ],
   "images": [
      {
         "uri": "static_gltf_Normal.png"
      },
      {
         "uri": "static_gltf_BaseColor.png"
      },
      {
         "uri": "static_gltf_Roughness_Metallic.jpg"
      }
   ],
   "samplers": [
      {
         "magFilter": 9729,
         "minFilter": 9987,
         "wrapS": 10497,
         "wrapT": 10497
      }
   ]
}
